<?xml version="1.0" encoding="UTF-8" standalone="no"?>
<!-- Created with Inkscape (http://www.inkscape.org/) -->

<svg
   id="svg3406"
   version="1.1"
   inkscape:version="1.2.2 (b0a8486541, 2022-12-01)"
   width="300"
   height="300"
   viewBox="0 0 300 300"
   sodipodi:docname="frowning_pile_of_poo.svg"
   xmlns:inkscape="http://www.inkscape.org/namespaces/inkscape"
   xmlns:sodipodi="http://sodipodi.sourceforge.net/DTD/sodipodi-0.dtd"
   xmlns="http://www.w3.org/2000/svg"
   xmlns:svg="http://www.w3.org/2000/svg"
   xmlns:rdf="http://www.w3.org/1999/02/22-rdf-syntax-ns#"
   xmlns:cc="http://creativecommons.org/ns#"
   xmlns:dc="http://purl.org/dc/elements/1.1/">
  <metadata
     id="metadata3412">
    <rdf:RDF>
      <cc:Work
         rdf:about="">
        <dc:format>image/svg+xml</dc:format>
        <dc:type
           rdf:resource="http://purl.org/dc/dcmitype/StillImage" />
      </cc:Work>
    </rdf:RDF>
  </metadata>
  <defs
     id="defs3410" />
  <sodipodi:namedview
     pagecolor="#ffffff"
     bordercolor="#666666"
     borderopacity="1"
     objecttolerance="10"
     gridtolerance="10"
     guidetolerance="10"
     inkscape:pageopacity="0"
     inkscape:pageshadow="2"
     inkscape:window-width="3840"
     inkscape:window-height="2042"
     id="namedview3408"
     showgrid="false"
     inkscape:zoom="3.7466102"
     inkscape:cx="202.98348"
     inkscape:cy="216.72924"
     inkscape:window-x="0"
     inkscape:window-y="0"
     inkscape:window-maximized="1"
     inkscape:current-layer="svg3406"
     inkscape:showpageshadow="2"
     inkscape:pagecheckerboard="0"
     inkscape:deskcolor="#d1d1d1" />
  <path
     sodipodi:nodetypes="ssssssss"
     inkscape:connector-curvature="0"
     id="path3421"
     d="m 29.300522,167.11572 c -22.51539,15.29095 -29.890582,45.95271 -12.21217,76.04852 22.79094,38.7994 82.3021,47.32393 127.672688,47.18339 48.91365,-0.15151 105.57628,-5.49786 134.33388,-39.96711 16.24116,-19.46688 16.41112,-55.83426 1.1102,-76.04852 -7.74893,-10.23722 -26.73982,-12.1823 -41.0773,-14.43256 -27.98273,-4.39188 -60.37582,10.25411 -91.53879,7.23034 -45.60985,-4.42557 -91.439028,-18.24845 -118.288508,-0.0141 z"
     style="fill:#77543b;fill-opacity:1;fill-rule:evenodd;stroke:none;stroke-width:1px;stroke-linecap:butt;stroke-linejoin:miter;stroke-opacity:1" />
  <path
     sodipodi:nodetypes="sssssssss"
     inkscape:connector-curvature="0"
     id="path3442"
     d="m 266.32765,152.68314 c 0,13.61209 -4.58483,26.35396 -17.16508,36.28403 -21.13642,16.68378 -59.78329,26.44213 -100.23829,26.44213 -40.40838,0 -78.028798,-10.2897 -98.849318,-26.93958 -12.43054,-9.94053 -17.44384,-22.14814 -17.44384,-35.78658 0,-12.17553 5.70328,-24.13544 15.70189,-33.18814 19.9607,-18.07234 57.040058,-27.872712 100.036168,-27.872712 38.20612,0 74.18391,9.170082 95.82165,23.769772 14.91032,10.06048 22.13682,22.40766 22.13682,37.29108 z"
     style="fill:#926b53;fill-opacity:1;stroke:none;stroke-opacity:1" />
  <path
     sodipodi:nodetypes="csssssaaac"
     inkscape:connector-curvature="0"
     id="path3455"
     d="m 123.48834,8.339236 c 2.47964,8.778749 -8.16835,25.499707 0.53684,32.984552 13.20214,11.35138 36.66623,9.3818 58.0154,10.69328 19.52354,1.19933 37.1905,5.37693 45.43016,20.17678 4.71237,8.46423 6.8124,19.43198 3.69068,29.698502 -2.62116,8.62034 -9.57872,16.7463 -15.34775,22.48077 -20.41171,20.28945 -56.05598,23.44983 -84.375,18.31826 -22.52423,-4.08152 -46.910008,-17.0193 -57.730258,-37.19161 -9.99466,-18.633172 -9.08185,-44.774722 0.87648,-63.427332 9.32661,-17.469355 45.543898,-43.561782 48.903448,-33.733202 z"
     style="fill:#ad8367;fill-opacity:1;fill-rule:evenodd;stroke:none;stroke-width:1px;stroke-linecap:butt;stroke-linejoin:miter;stroke-opacity:1" />
  <circle
     r="34.138569"
     cy="159.06677"
     cx="100.07559"
     id="path3451"
     style="fill:#ffffff;fill-opacity:1;stroke:none;stroke-opacity:1" />
  <ellipse
     ry="17.763159"
     rx="16.652962"
     cy="167.64476"
     cx="105.19781"
     id="path3447"
     style="fill:#000000;fill-opacity:1;stroke:none;stroke-opacity:1" />
  <circle
     style="fill:#ffffff;fill-opacity:1;stroke:none;stroke-opacity:1"
     id="circle3453"
     cx="198.07559"
     cy="159.06677"
     r="34.138569" />
  <ellipse
     style="fill:#000000;fill-opacity:1;stroke:none;stroke-opacity:1"
     id="ellipse3449"
     cx="194.5553"
     cy="167.61517"
     rx="17.208061"
     ry="17.763159" />
  <path
     style="fill:#000000"
     d="m 104.57343,239.18463 c 9.2132,-7.9232 26.36548,-15.10907 45.4476,-15.32803 19.08212,-0.21896 42.76344,9.37064 49.86376,16.64087 7.10032,7.27024 7.22605,14.6067 -0.26315,16.79505 -7.48921,2.18835 -7.4638,0.25581 -17.782,-8.94733 -5.1591,-4.60156 -18.29342,-9.57553 -31.35029,-9.68761 -13.05688,-0.11208 -26.03632,4.63773 -30.88566,9.34552 -9.69869,9.41559 -10.46667,13.89373 -18.80561,10.82597 -8.338928,-3.06776 -5.437838,-11.72123 3.77535,-19.64444 z"
     id="path284"
     sodipodi:nodetypes="zzzzssszz" />
</svg>
